<svg xmlns="http://www.w3.org/2000/svg" xmlns:xlink="http://www.w3.org/1999/xlink" width="750" zoomAndPan="magnify" viewBox="0 0 562.5 562.499982" height="750" preserveAspectRatio="xMidYMid meet" version="1.2"><defs><clipPath id="fdcd6a8cac"><path d="M 100.199219 176.332031 L 462 176.332031 L 462 278.242188 L 100.199219 278.242188 Z M 100.199219 176.332031 "/></clipPath><clipPath id="62cd774406"><path d="M 118 199 L 446 199 L 446 278.242188 L 118 278.242188 Z M 118 199 "/></clipPath></defs><g id="a755b3cae8"><g clip-rule="nonzero" clip-path="url(#fdcd6a8cac)"><path style=" stroke:none;fill-rule:nonzero;fill:#000000;fill-opacity:1;" d="M 255.988281 204.535156 L 240.042969 219.199219 C 239.492188 219.703125 239.164062 220.410156 239.132812 221.160156 L 238.976562 224.992188 C 238.949219 225.566406 238.699219 226.109375 238.269531 226.5 L 232.476562 231.769531 C 232.28125 231.941406 232.027344 232.039062 231.765625 232.03125 L 227.976562 231.9375 C 227.519531 231.925781 227.078125 232.117188 226.777344 232.460938 L 221.058594 238.957031 C 220.746094 239.316406 220.78125 239.859375 221.136719 240.171875 L 232.335938 249.988281 C 232.675781 250.285156 233.191406 250.269531 233.507812 249.949219 L 240.554688 242.902344 C 240.90625 242.554688 241.085938 242.066406 241.027344 241.578125 C 240.890625 240.464844 241.582031 239.605469 241.582031 239.605469 C 242.871094 238.191406 243.917969 237.351562 245.453125 236.46875 C 253.9375 232.289062 261.195312 239.542969 261.195312 239.542969 L 303.128906 278.035156 L 237.339844 278.035156 L 175.566406 205.769531 L 111.539062 278.035156 L 100.472656 278.035156 L 111.539062 265.984375 L 111.539062 233.152344 L 125.1875 233.152344 L 125.1875 250.492188 L 173.761719 196.136719 Z M 461.519531 278.03125 L 452.171875 278.03125 L 399.539062 221.339844 L 343.957031 278.03125 L 323.296875 278.03125 C 323.90625 276.820312 266.683594 229.800781 268.371094 218.144531 C 270.542969 203.140625 291.40625 201.582031 291.40625 201.582031 C 279.683594 195.761719 262.960938 199.699219 262.960938 199.699219 L 280.789062 182.972656 L 330.675781 176.332031 L 365.355469 216.667969 L 399.785156 211.503906 Z M 358.46875 217.160156 L 330.800781 184.574219 L 295.136719 228.597656 L 287.140625 228.964844 L 303.128906 244.335938 L 333.132812 219.742188 Z M 358.46875 217.160156 "/></g><g clip-rule="nonzero" clip-path="url(#62cd774406)"><path style=" stroke:none;fill-rule:nonzero;fill:#a2a2a3;fill-opacity:1;" d="M 445.410156 278.03125 L 440.367188 278.03125 L 396.097656 231.242188 L 398.863281 228.167969 Z M 397.570312 255.894531 L 387.980469 255.894531 L 387.980469 265.488281 L 397.570312 265.488281 Z M 410.445312 255.894531 L 400.851562 255.894531 L 400.851562 265.488281 L 410.445312 265.488281 Z M 397.570312 268.4375 L 387.980469 268.4375 L 387.980469 278.03125 L 397.570312 278.03125 Z M 410.445312 268.4375 L 400.851562 268.4375 L 400.851562 278.03125 L 410.445312 278.03125 Z M 171.554688 251.347656 L 159.988281 251.347656 L 159.988281 262.910156 L 171.554688 262.910156 Z M 187.070312 251.347656 L 175.503906 251.347656 L 175.503906 262.910156 L 187.070312 262.910156 Z M 171.554688 266.46875 L 159.988281 266.46875 L 159.988281 278.03125 L 171.554688 278.03125 Z M 187.070312 266.46875 L 175.503906 266.46875 L 175.503906 278.03125 L 187.070312 278.03125 Z M 332.328125 199.863281 L 326.953125 199.863281 L 326.953125 205.238281 L 332.328125 205.238281 Z M 339.539062 199.863281 L 334.164062 199.863281 L 334.164062 205.238281 L 339.539062 205.238281 Z M 332.328125 206.890625 L 326.953125 206.890625 L 326.953125 212.265625 L 332.328125 212.265625 Z M 339.539062 206.890625 L 334.164062 206.890625 L 334.164062 212.265625 L 339.539062 212.265625 Z M 175.507812 213.0625 L 118.015625 278.03125 L 122.769531 278.03125 L 178.183594 216.082031 Z M 175.507812 213.0625 "/></g><g style="fill:#000000;fill-opacity:1;"><g transform="translate(21.931204, 347.83326)"><path style="stroke:none" d="M 4.46875 0 C 4.507812 -1.46875 4.550781 -3.273438 4.59375 -5.421875 C 4.644531 -7.566406 4.691406 -9.878906 4.734375 -12.359375 C 4.785156 -14.847656 4.820312 -17.351562 4.84375 -19.875 C 4.875 -22.40625 4.890625 -24.78125 4.890625 -27 C 4.890625 -28.84375 4.863281 -30.976562 4.8125 -33.40625 C 4.769531 -35.84375 4.722656 -38.347656 4.671875 -40.921875 C 4.628906 -43.503906 4.582031 -45.953125 4.53125 -48.265625 C 4.488281 -50.578125 4.46875 -52.515625 4.46875 -54.078125 L 45.5 -54.078125 L 45.5 -43.9375 L 18.359375 -43.9375 L 18.359375 -30.046875 L 43.59375 -30.46875 L 43.59375 -20.90625 L 18.359375 -21.328125 C 18.359375 -19.390625 18.367188 -17.132812 18.390625 -14.5625 C 18.410156 -11.988281 18.429688 -9.414062 18.453125 -6.84375 C 18.484375 -4.269531 18.5 -1.988281 18.5 0 Z M 4.46875 0 "/></g></g><g style="fill:#000000;fill-opacity:1;"><g transform="translate(72.529471, 347.83326)"><path style="stroke:none" d="M 4.46875 0 C 4.5625 -4.488281 4.628906 -9.0625 4.671875 -13.71875 C 4.722656 -18.375 4.75 -22.800781 4.75 -27 C 4.75 -31.25 4.722656 -35.691406 4.671875 -40.328125 C 4.628906 -44.960938 4.5625 -49.546875 4.46875 -54.078125 L 18.640625 -54.078125 C 18.492188 -45.097656 18.421875 -36.617188 18.421875 -28.640625 C 18.421875 -25.609375 18.429688 -22.5 18.453125 -19.3125 C 18.484375 -16.125 18.519531 -13.273438 18.5625 -10.765625 C 22.207031 -10.765625 26.015625 -10.773438 29.984375 -10.796875 C 33.953125 -10.828125 37.660156 -10.867188 41.109375 -10.921875 L 40.109375 0 Z M 4.46875 0 "/></g></g><g style="fill:#000000;fill-opacity:1;"><g transform="translate(116.112133, 347.83326)"><path style="stroke:none" d="M 27.859375 0.921875 C 19.066406 0.921875 12.625 -1.351562 8.53125 -5.90625 C 4.445312 -10.46875 2.40625 -17.523438 2.40625 -27.078125 C 2.40625 -36.523438 4.472656 -43.523438 8.609375 -48.078125 C 12.742188 -52.640625 19.015625 -54.921875 27.421875 -54.921875 C 36.117188 -54.921875 42.546875 -52.628906 46.703125 -48.046875 C 50.859375 -43.460938 52.9375 -36.378906 52.9375 -26.796875 C 52.9375 -17.390625 50.832031 -10.414062 46.625 -5.875 C 42.425781 -1.34375 36.171875 0.921875 27.859375 0.921875 Z M 28.0625 -9.078125 C 29.289062 -9.078125 30.554688 -9.191406 31.859375 -9.421875 C 33.160156 -9.660156 34.28125 -10.085938 35.21875 -10.703125 C 36.5 -12.640625 37.476562 -14.941406 38.15625 -17.609375 C 38.84375 -20.273438 39.1875 -23.335938 39.1875 -26.796875 C 39.1875 -30.378906 38.738281 -33.53125 37.84375 -36.25 C 36.945312 -38.96875 35.625 -41.082031 33.875 -42.59375 C 32.125 -44.101562 29.972656 -44.859375 27.421875 -44.859375 C 26.097656 -44.859375 24.738281 -44.691406 23.34375 -44.359375 C 21.957031 -44.035156 20.71875 -43.519531 19.625 -42.8125 C 18.539062 -40.96875 17.703125 -38.816406 17.109375 -36.359375 C 16.523438 -33.898438 16.234375 -30.898438 16.234375 -27.359375 C 16.234375 -21.878906 17.257812 -17.460938 19.3125 -14.109375 C 21.363281 -10.753906 24.28125 -9.078125 28.0625 -9.078125 Z M 28.0625 -9.078125 "/></g></g><g style="fill:#000000;fill-opacity:1;"><g transform="translate(174.151211, 347.83326)"><path style="stroke:none" d="M 9.78125 0 C 8.269531 -10.539062 6.628906 -20.378906 4.859375 -29.515625 C 3.085938 -38.660156 1.441406 -46.847656 -0.078125 -54.078125 L 14.171875 -54.078125 C 14.546875 -51.804688 14.992188 -49.207031 15.515625 -46.28125 C 16.035156 -43.351562 16.578125 -40.28125 17.140625 -37.0625 C 17.710938 -33.851562 18.269531 -30.675781 18.8125 -27.53125 C 19.351562 -24.394531 19.847656 -21.476562 20.296875 -18.78125 C 20.753906 -16.082031 21.125 -13.816406 21.40625 -11.984375 L 22.46875 -11.984375 L 29.40625 -54.078125 L 44.078125 -54.078125 L 50.953125 -12.046875 L 51.953125 -12.046875 C 52.421875 -15.066406 52.960938 -18.421875 53.578125 -22.109375 C 54.191406 -25.796875 54.84375 -29.5625 55.53125 -33.40625 C 56.21875 -37.257812 56.890625 -40.96875 57.546875 -44.53125 C 58.210938 -48.101562 58.78125 -51.285156 59.25 -54.078125 L 73.5 -54.078125 C 72.882812 -51.429688 72.234375 -48.300781 71.546875 -44.6875 C 70.859375 -41.070312 70.132812 -37.234375 69.375 -33.171875 C 68.625 -29.109375 67.90625 -25.03125 67.21875 -20.9375 C 66.539062 -16.851562 65.894531 -13.003906 65.28125 -9.390625 C 64.664062 -5.773438 64.144531 -2.644531 63.71875 0 L 43.59375 0 L 38.125 -33.59375 C 37.9375 -34.875 37.769531 -35.945312 37.625 -36.8125 C 37.488281 -37.6875 37.375 -38.90625 37.28125 -40.46875 L 36.21875 -40.46875 C 36.070312 -39.289062 35.925781 -38.132812 35.78125 -37 C 35.644531 -35.863281 35.484375 -34.707031 35.296875 -33.53125 L 29.90625 0 Z M 9.78125 0 "/></g></g><g style="fill:#000000;fill-opacity:1;"><g transform="translate(250.119077, 347.83326)"><path style="stroke:none" d="M 4.46875 0 C 4.507812 -1.46875 4.550781 -3.3125 4.59375 -5.53125 C 4.644531 -7.75 4.691406 -10.132812 4.734375 -12.6875 C 4.785156 -15.238281 4.820312 -17.765625 4.84375 -20.265625 C 4.875 -22.773438 4.890625 -25.019531 4.890625 -27 C 4.890625 -29.125 4.875 -31.414062 4.84375 -33.875 C 4.820312 -36.332031 4.785156 -38.8125 4.734375 -41.3125 C 4.691406 -43.820312 4.644531 -46.1875 4.59375 -48.40625 C 4.550781 -50.625 4.507812 -52.515625 4.46875 -54.078125 L 45.921875 -54.078125 L 45.921875 -43.9375 L 18.359375 -43.9375 L 18.359375 -31.25 L 44.015625 -31.6875 L 44.015625 -22.609375 L 18.359375 -23.03125 L 18.359375 -10.140625 L 46.28125 -10.140625 L 46.28125 0 Z M 4.46875 0 "/></g></g><g style="fill:#000000;fill-opacity:1;"><g transform="translate(301.49687, 347.83326)"><path style="stroke:none" d="M 27.71875 0.84375 C 19.914062 0.84375 13.921875 -0.453125 9.734375 -3.046875 C 5.554688 -5.648438 3.113281 -10.160156 2.40625 -16.578125 L 17.4375 -17.796875 C 17.675781 -16.179688 18.132812 -14.675781 18.8125 -13.28125 C 19.5 -11.894531 20.5625 -10.765625 22 -9.890625 C 23.445312 -9.015625 25.421875 -8.578125 27.921875 -8.578125 C 29.203125 -8.578125 30.523438 -8.691406 31.890625 -8.921875 C 33.265625 -9.160156 34.328125 -9.585938 35.078125 -10.203125 C 36.265625 -11.953125 36.859375 -13.914062 36.859375 -16.09375 C 36.859375 -17.507812 36.570312 -18.664062 36 -19.5625 C 35.4375 -20.457031 34.421875 -21.164062 32.953125 -21.6875 C 31.492188 -22.207031 29.367188 -22.609375 26.578125 -22.890625 C 20.910156 -23.128906 16.410156 -23.929688 13.078125 -25.296875 C 9.742188 -26.671875 7.351562 -28.515625 5.90625 -30.828125 C 4.46875 -33.140625 3.75 -35.8125 3.75 -38.84375 C 3.75 -42.476562 4.753906 -45.488281 6.765625 -47.875 C 8.773438 -50.257812 11.503906 -52.03125 14.953125 -53.1875 C 18.398438 -54.34375 22.320312 -54.921875 26.71875 -54.921875 C 34.320312 -54.921875 39.988281 -53.335938 43.71875 -50.171875 C 47.457031 -47.015625 49.726562 -42.269531 50.53125 -35.9375 L 36.71875 -34.9375 C 36.382812 -37.019531 35.921875 -38.816406 35.328125 -40.328125 C 34.734375 -41.835938 33.738281 -43.003906 32.34375 -43.828125 C 30.957031 -44.660156 28.894531 -45.078125 26.15625 -45.078125 C 25.164062 -45.078125 24.066406 -44.992188 22.859375 -44.828125 C 21.648438 -44.660156 20.671875 -44.34375 19.921875 -43.875 C 19.253906 -42.976562 18.707031 -42.007812 18.28125 -40.96875 C 17.851562 -39.925781 17.640625 -38.769531 17.640625 -37.5 C 17.640625 -35.175781 18.375 -33.53125 19.84375 -32.5625 C 21.3125 -31.59375 23.910156 -30.847656 27.640625 -30.328125 C 32.367188 -30.097656 36.234375 -29.59375 39.234375 -28.8125 C 42.234375 -28.03125 44.546875 -27.015625 46.171875 -25.765625 C 47.804688 -24.515625 48.941406 -23.023438 49.578125 -21.296875 C 50.210938 -19.578125 50.53125 -17.628906 50.53125 -15.453125 C 50.53125 -11.953125 49.550781 -8.984375 47.59375 -6.546875 C 45.632812 -4.117188 42.941406 -2.28125 39.515625 -1.03125 C 36.085938 0.21875 32.15625 0.84375 27.71875 0.84375 Z M 27.71875 0.84375 "/></g></g><g style="fill:#000000;fill-opacity:1;"><g transform="translate(357.268275, 347.83326)"><path style="stroke:none" d="M 14.59375 0 C 14.6875 -4.394531 14.757812 -8.859375 14.8125 -13.390625 C 14.863281 -17.929688 14.890625 -22.28125 14.890625 -26.4375 C 14.890625 -29.363281 14.875 -32.375 14.84375 -35.46875 C 14.820312 -38.5625 14.785156 -41.289062 14.734375 -43.65625 C 12.566406 -43.65625 10.132812 -43.644531 7.4375 -43.625 C 4.75 -43.601562 2.242188 -43.546875 -0.078125 -43.453125 L -0.078125 -54.078125 L 43.59375 -54.078125 L 43.59375 -43.453125 C 41.414062 -43.546875 38.941406 -43.601562 36.171875 -43.625 C 33.410156 -43.644531 30.898438 -43.65625 28.640625 -43.65625 C 28.640625 -42.707031 28.625 -41.394531 28.59375 -39.71875 C 28.570312 -38.039062 28.546875 -36.242188 28.515625 -34.328125 C 28.492188 -32.421875 28.484375 -30.640625 28.484375 -28.984375 C 28.484375 -27.328125 28.484375 -26.078125 28.484375 -25.234375 C 28.484375 -16.773438 28.554688 -8.363281 28.703125 0 Z M 14.59375 0 "/></g></g><g style="fill:#000000;fill-opacity:1;"><g transform="translate(403.331212, 347.83326)"><path style="stroke:none" d="M 53.15625 0 L 38.703125 0 C 38.316406 -2.03125 37.875 -4.035156 37.375 -6.015625 C 36.882812 -8.003906 36.378906 -10.015625 35.859375 -12.046875 L 26.4375 -12.046875 C 24.832031 -12.046875 23.285156 -12.046875 21.796875 -12.046875 C 20.304688 -12.046875 18.851562 -12.046875 17.4375 -12.046875 C 16.207031 -7.273438 15.117188 -3.257812 14.171875 0 L -0.078125 0 C 0.960938 -3.820312 2.144531 -8.082031 3.46875 -12.78125 C 4.789062 -17.488281 6.148438 -22.3125 7.546875 -27.25 C 8.941406 -32.1875 10.265625 -36.96875 11.515625 -41.59375 C 12.765625 -46.226562 13.835938 -50.390625 14.734375 -54.078125 L 38.203125 -54.078125 C 39.148438 -50.441406 40.234375 -46.34375 41.453125 -41.78125 C 42.679688 -37.21875 43.992188 -32.488281 45.390625 -27.59375 C 46.785156 -22.707031 48.144531 -17.898438 49.46875 -13.171875 C 50.789062 -8.453125 52.019531 -4.0625 53.15625 0 Z M 19.421875 -19.703125 L 33.734375 -19.703125 C 32.460938 -24.046875 31.195312 -28.425781 29.9375 -32.84375 C 28.6875 -37.269531 27.59375 -41.722656 26.65625 -46.203125 L 26.078125 -46.203125 C 24.941406 -41.765625 23.804688 -37.273438 22.671875 -32.734375 C 21.546875 -28.203125 20.460938 -23.859375 19.421875 -19.703125 Z M 19.421875 -19.703125 "/></g></g><g style="fill:#000000;fill-opacity:1;"><g transform="translate(459.03175, 347.83326)"><path style="stroke:none" d="M 14.59375 0 C 14.6875 -4.394531 14.757812 -8.859375 14.8125 -13.390625 C 14.863281 -17.929688 14.890625 -22.28125 14.890625 -26.4375 C 14.890625 -29.363281 14.875 -32.375 14.84375 -35.46875 C 14.820312 -38.5625 14.785156 -41.289062 14.734375 -43.65625 C 12.566406 -43.65625 10.132812 -43.644531 7.4375 -43.625 C 4.75 -43.601562 2.242188 -43.546875 -0.078125 -43.453125 L -0.078125 -54.078125 L 43.59375 -54.078125 L 43.59375 -43.453125 C 41.414062 -43.546875 38.941406 -43.601562 36.171875 -43.625 C 33.410156 -43.644531 30.898438 -43.65625 28.640625 -43.65625 C 28.640625 -42.707031 28.625 -41.394531 28.59375 -39.71875 C 28.570312 -38.039062 28.546875 -36.242188 28.515625 -34.328125 C 28.492188 -32.421875 28.484375 -30.640625 28.484375 -28.984375 C 28.484375 -27.328125 28.484375 -26.078125 28.484375 -25.234375 C 28.484375 -16.773438 28.554688 -8.363281 28.703125 0 Z M 14.59375 0 "/></g></g><g style="fill:#000000;fill-opacity:1;"><g transform="translate(505.094653, 347.83326)"><path style="stroke:none" d="M 4.46875 0 C 4.507812 -1.46875 4.550781 -3.3125 4.59375 -5.53125 C 4.644531 -7.75 4.691406 -10.132812 4.734375 -12.6875 C 4.785156 -15.238281 4.820312 -17.765625 4.84375 -20.265625 C 4.875 -22.773438 4.890625 -25.019531 4.890625 -27 C 4.890625 -29.125 4.875 -31.414062 4.84375 -33.875 C 4.820312 -36.332031 4.785156 -38.8125 4.734375 -41.3125 C 4.691406 -43.820312 4.644531 -46.1875 4.59375 -48.40625 C 4.550781 -50.625 4.507812 -52.515625 4.46875 -54.078125 L 45.921875 -54.078125 L 45.921875 -43.9375 L 18.359375 -43.9375 L 18.359375 -31.25 L 44.015625 -31.6875 L 44.015625 -22.609375 L 18.359375 -23.03125 L 18.359375 -10.140625 L 46.28125 -10.140625 L 46.28125 0 Z M 4.46875 0 "/></g></g><g style="fill:#000000;fill-opacity:1;"><g transform="translate(180.863594, 379.721543)"><path style="stroke:none" d="M 16.71875 -2.84375 C 17.164062 -2.375 17.378906 -1.921875 17.359375 -1.484375 C 17.335938 -1.054688 17.171875 -0.703125 16.859375 -0.421875 C 16.554688 -0.140625 16.195312 0.00390625 15.78125 0.015625 C 15.363281 0.0234375 14.972656 -0.160156 14.609375 -0.546875 L 9.421875 -6.09375 L 5.046875 -6.09375 L 5.046875 -1.5 C 5.046875 -1.019531 4.863281 -0.648438 4.5 -0.390625 C 4.144531 -0.128906 3.765625 0 3.359375 0 C 2.929688 0 2.546875 -0.125 2.203125 -0.375 C 1.859375 -0.625 1.6875 -0.992188 1.6875 -1.484375 L 1.6875 -16.953125 C 1.6875 -17.398438 1.84375 -17.765625 2.15625 -18.046875 C 2.476562 -18.328125 2.878906 -18.46875 3.359375 -18.46875 L 9.828125 -18.46875 C 11.566406 -18.46875 13.015625 -18.1875 14.171875 -17.625 C 15.328125 -17.0625 16.195312 -16.304688 16.78125 -15.359375 C 17.363281 -14.410156 17.65625 -13.359375 17.65625 -12.203125 C 17.65625 -10.847656 17.289062 -9.660156 16.5625 -8.640625 C 15.84375 -7.628906 14.738281 -6.914062 13.25 -6.5 Z M 5.046875 -8.890625 L 9.859375 -8.890625 C 11.398438 -8.890625 12.523438 -9.210938 13.234375 -9.859375 C 13.953125 -10.515625 14.296875 -11.285156 14.265625 -12.171875 C 14.242188 -13.140625 13.84375 -13.941406 13.0625 -14.578125 C 12.289062 -15.210938 11.222656 -15.53125 9.859375 -15.53125 L 5.046875 -15.53125 Z M 5.046875 -8.890625 "/></g></g><g style="fill:#000000;fill-opacity:1;"><g transform="translate(200.684828, 379.721543)"><path style="stroke:none" d="M 15.09375 -2.890625 C 15.601562 -2.890625 15.992188 -2.726562 16.265625 -2.40625 C 16.546875 -2.09375 16.6875 -1.753906 16.6875 -1.390625 C 16.6875 -1.046875 16.554688 -0.726562 16.296875 -0.4375 C 16.035156 -0.144531 15.632812 0 15.09375 0 L 3.59375 0 C 3.007812 0 2.546875 -0.164062 2.203125 -0.5 C 1.859375 -0.84375 1.6875 -1.253906 1.6875 -1.734375 L 1.6875 -16.75 C 1.6875 -17.21875 1.859375 -17.617188 2.203125 -17.953125 C 2.546875 -18.296875 3.007812 -18.46875 3.59375 -18.46875 L 15.09375 -18.46875 C 15.625 -18.46875 16.015625 -18.328125 16.265625 -18.046875 C 16.515625 -17.765625 16.640625 -17.441406 16.640625 -17.078125 C 16.640625 -16.722656 16.507812 -16.390625 16.25 -16.078125 C 15.988281 -15.773438 15.601562 -15.625 15.09375 -15.625 L 4.984375 -15.625 L 4.984375 -10.546875 L 14.578125 -10.546875 C 15.078125 -10.546875 15.453125 -10.394531 15.703125 -10.09375 C 15.960938 -9.800781 16.09375 -9.46875 16.09375 -9.09375 C 16.09375 -8.75 15.960938 -8.429688 15.703125 -8.140625 C 15.453125 -7.847656 15.078125 -7.703125 14.578125 -7.703125 L 4.984375 -7.703125 L 4.984375 -2.890625 Z M 15.09375 -2.890625 "/></g></g><g style="fill:#000000;fill-opacity:1;"><g transform="translate(219.984451, 379.721543)"><path style="stroke:none" d="M 9.484375 -18.75 C 9.785156 -18.75 10.070312 -18.6875 10.34375 -18.5625 C 10.613281 -18.4375 10.816406 -18.226562 10.953125 -17.9375 L 19.15625 -1.859375 C 19.40625 -1.429688 19.472656 -1.054688 19.359375 -0.734375 C 19.242188 -0.421875 19.019531 -0.171875 18.6875 0.015625 C 18.363281 0.203125 18.019531 0.296875 17.65625 0.296875 C 17.382812 0.296875 17.109375 0.222656 16.828125 0.078125 C 16.546875 -0.0664062 16.328125 -0.273438 16.171875 -0.546875 L 14.140625 -4.578125 L 4.8125 -4.578125 L 2.78125 -0.546875 C 2.644531 -0.242188 2.4375 -0.03125 2.15625 0.09375 C 1.875 0.226562 1.597656 0.296875 1.328125 0.296875 C 1.003906 0.296875 0.679688 0.203125 0.359375 0.015625 C 0.046875 -0.171875 -0.179688 -0.421875 -0.328125 -0.734375 C -0.472656 -1.054688 -0.460938 -1.398438 -0.296875 -1.765625 L 7.96875 -17.9375 C 8.125 -18.269531 8.320312 -18.488281 8.5625 -18.59375 C 8.800781 -18.695312 9.109375 -18.75 9.484375 -18.75 Z M 9.484375 -13.859375 L 6.234375 -7.390625 L 12.71875 -7.390625 Z M 9.484375 -13.859375 "/></g></g><g style="fill:#000000;fill-opacity:1;"><g transform="translate(240.964811, 379.721543)"><path style="stroke:none" d="M 3.390625 0 C 2.773438 0 2.332031 -0.132812 2.0625 -0.40625 C 1.789062 -0.675781 1.65625 -1.0625 1.65625 -1.5625 L 1.65625 -16.984375 C 1.65625 -17.484375 1.832031 -17.851562 2.1875 -18.09375 C 2.539062 -18.34375 2.929688 -18.46875 3.359375 -18.46875 C 3.765625 -18.46875 4.144531 -18.34375 4.5 -18.09375 C 4.863281 -17.851562 5.046875 -17.484375 5.046875 -16.984375 L 5.046875 -2.890625 L 14.546875 -2.890625 C 15.109375 -2.890625 15.539062 -2.734375 15.84375 -2.421875 C 16.144531 -2.117188 16.296875 -1.796875 16.296875 -1.453125 C 16.296875 -1.085938 16.144531 -0.753906 15.84375 -0.453125 C 15.539062 -0.148438 15.109375 0 14.546875 0 Z M 3.390625 0 "/></g></g><g style="fill:#000000;fill-opacity:1;"><g transform="translate(258.438825, 379.721543)"><path style="stroke:none" d=""/></g></g><g style="fill:#000000;fill-opacity:1;"><g transform="translate(267.132492, 379.721543)"><path style="stroke:none" d="M 15.09375 -2.890625 C 15.601562 -2.890625 15.992188 -2.726562 16.265625 -2.40625 C 16.546875 -2.09375 16.6875 -1.753906 16.6875 -1.390625 C 16.6875 -1.046875 16.554688 -0.726562 16.296875 -0.4375 C 16.035156 -0.144531 15.632812 0 15.09375 0 L 3.59375 0 C 3.007812 0 2.546875 -0.164062 2.203125 -0.5 C 1.859375 -0.84375 1.6875 -1.253906 1.6875 -1.734375 L 1.6875 -16.75 C 1.6875 -17.21875 1.859375 -17.617188 2.203125 -17.953125 C 2.546875 -18.296875 3.007812 -18.46875 3.59375 -18.46875 L 15.09375 -18.46875 C 15.625 -18.46875 16.015625 -18.328125 16.265625 -18.046875 C 16.515625 -17.765625 16.640625 -17.441406 16.640625 -17.078125 C 16.640625 -16.722656 16.507812 -16.390625 16.25 -16.078125 C 15.988281 -15.773438 15.601562 -15.625 15.09375 -15.625 L 4.984375 -15.625 L 4.984375 -10.546875 L 14.578125 -10.546875 C 15.078125 -10.546875 15.453125 -10.394531 15.703125 -10.09375 C 15.960938 -9.800781 16.09375 -9.46875 16.09375 -9.09375 C 16.09375 -8.75 15.960938 -8.429688 15.703125 -8.140625 C 15.453125 -7.847656 15.078125 -7.703125 14.578125 -7.703125 L 4.984375 -7.703125 L 4.984375 -2.890625 Z M 15.09375 -2.890625 "/></g></g><g style="fill:#000000;fill-opacity:1;"><g transform="translate(286.432115, 379.721543)"><path style="stroke:none" d="M 0.203125 -4.375 C 0.0664062 -4.9375 0.203125 -5.378906 0.609375 -5.703125 C 1.015625 -6.035156 1.46875 -6.203125 1.96875 -6.203125 C 2.351562 -6.203125 2.695312 -6.109375 3 -5.921875 C 3.300781 -5.742188 3.488281 -5.460938 3.5625 -5.078125 C 3.78125 -4.453125 4.179688 -3.96875 4.765625 -3.625 C 5.359375 -3.289062 6.019531 -3.0625 6.75 -2.9375 C 7.488281 -2.8125 8.175781 -2.75 8.8125 -2.75 C 9.3125 -2.75 9.859375 -2.785156 10.453125 -2.859375 C 11.054688 -2.941406 11.628906 -3.082031 12.171875 -3.28125 C 12.710938 -3.488281 13.15625 -3.773438 13.5 -4.140625 C 13.851562 -4.515625 14.03125 -4.988281 14.03125 -5.5625 C 14.03125 -6.1875 13.773438 -6.640625 13.265625 -6.921875 C 12.753906 -7.210938 12.097656 -7.421875 11.296875 -7.546875 C 10.503906 -7.671875 9.675781 -7.765625 8.8125 -7.828125 C 7.820312 -7.898438 6.828125 -8.015625 5.828125 -8.171875 C 4.835938 -8.328125 3.929688 -8.578125 3.109375 -8.921875 C 2.296875 -9.273438 1.632812 -9.785156 1.125 -10.453125 C 0.625 -11.117188 0.375 -12 0.375 -13.09375 C 0.375 -14.082031 0.625 -14.929688 1.125 -15.640625 C 1.632812 -16.359375 2.289062 -16.945312 3.09375 -17.40625 C 3.90625 -17.863281 4.785156 -18.203125 5.734375 -18.421875 C 6.679688 -18.640625 7.609375 -18.75 8.515625 -18.75 C 9.523438 -18.75 10.578125 -18.632812 11.671875 -18.40625 C 12.773438 -18.175781 13.785156 -17.765625 14.703125 -17.171875 C 15.628906 -16.585938 16.3125 -15.757812 16.75 -14.6875 C 16.90625 -14.15625 16.796875 -13.707031 16.421875 -13.34375 C 16.046875 -12.988281 15.601562 -12.8125 15.09375 -12.8125 C 14.789062 -12.8125 14.5 -12.882812 14.21875 -13.03125 C 13.9375 -13.175781 13.738281 -13.375 13.625 -13.625 C 13.394531 -14.21875 12.988281 -14.660156 12.40625 -14.953125 C 11.820312 -15.242188 11.179688 -15.429688 10.484375 -15.515625 C 9.796875 -15.609375 9.148438 -15.65625 8.546875 -15.65625 C 8.160156 -15.65625 7.703125 -15.613281 7.171875 -15.53125 C 6.640625 -15.457031 6.125 -15.320312 5.625 -15.125 C 5.125 -14.9375 4.703125 -14.671875 4.359375 -14.328125 C 4.023438 -13.992188 3.859375 -13.578125 3.859375 -13.078125 C 3.859375 -12.453125 4.097656 -11.984375 4.578125 -11.671875 C 5.054688 -11.367188 5.695312 -11.160156 6.5 -11.046875 C 7.300781 -10.929688 8.175781 -10.832031 9.125 -10.75 C 10.132812 -10.65625 11.132812 -10.546875 12.125 -10.421875 C 13.125 -10.296875 14.03125 -10.070312 14.84375 -9.75 C 15.65625 -9.4375 16.300781 -8.953125 16.78125 -8.296875 C 17.257812 -7.648438 17.5 -6.75 17.5 -5.59375 C 17.5 -4.4375 17.222656 -3.476562 16.671875 -2.71875 C 16.128906 -1.96875 15.410156 -1.367188 14.515625 -0.921875 C 13.628906 -0.484375 12.679688 -0.171875 11.671875 0.015625 C 10.671875 0.203125 9.71875 0.296875 8.8125 0.296875 C 8.0625 0.296875 7.238281 0.222656 6.34375 0.078125 C 5.457031 -0.0664062 4.59375 -0.316406 3.75 -0.671875 C 2.914062 -1.035156 2.175781 -1.515625 1.53125 -2.109375 C 0.894531 -2.710938 0.453125 -3.46875 0.203125 -4.375 Z M 0.203125 -4.375 "/></g></g><g style="fill:#000000;fill-opacity:1;"><g transform="translate(305.934599, 379.721543)"><path style="stroke:none" d="M 15.015625 -18.46875 C 15.578125 -18.46875 16 -18.3125 16.28125 -18 C 16.570312 -17.6875 16.71875 -17.335938 16.71875 -16.953125 C 16.71875 -16.585938 16.570312 -16.25 16.28125 -15.9375 C 16 -15.632812 15.578125 -15.484375 15.015625 -15.484375 L 9.625 -15.484375 L 9.65625 -1.53125 C 9.65625 -1.007812 9.460938 -0.625 9.078125 -0.375 C 8.703125 -0.125 8.320312 0 7.9375 0 C 7.53125 0 7.148438 -0.125 6.796875 -0.375 C 6.441406 -0.625 6.265625 -1.007812 6.265625 -1.53125 L 6.265625 -15.484375 L 0.90625 -15.484375 C 0.34375 -15.484375 -0.0664062 -15.632812 -0.328125 -15.9375 C -0.585938 -16.25 -0.71875 -16.585938 -0.71875 -16.953125 C -0.71875 -17.335938 -0.585938 -17.6875 -0.328125 -18 C -0.0664062 -18.3125 0.34375 -18.46875 0.90625 -18.46875 Z M 15.015625 -18.46875 "/></g></g><g style="fill:#000000;fill-opacity:1;"><g transform="translate(323.785332, 379.721543)"><path style="stroke:none" d="M 9.484375 -18.75 C 9.785156 -18.75 10.070312 -18.6875 10.34375 -18.5625 C 10.613281 -18.4375 10.816406 -18.226562 10.953125 -17.9375 L 19.15625 -1.859375 C 19.40625 -1.429688 19.472656 -1.054688 19.359375 -0.734375 C 19.242188 -0.421875 19.019531 -0.171875 18.6875 0.015625 C 18.363281 0.203125 18.019531 0.296875 17.65625 0.296875 C 17.382812 0.296875 17.109375 0.222656 16.828125 0.078125 C 16.546875 -0.0664062 16.328125 -0.273438 16.171875 -0.546875 L 14.140625 -4.578125 L 4.8125 -4.578125 L 2.78125 -0.546875 C 2.644531 -0.242188 2.4375 -0.03125 2.15625 0.09375 C 1.875 0.226562 1.597656 0.296875 1.328125 0.296875 C 1.003906 0.296875 0.679688 0.203125 0.359375 0.015625 C 0.046875 -0.171875 -0.179688 -0.421875 -0.328125 -0.734375 C -0.472656 -1.054688 -0.460938 -1.398438 -0.296875 -1.765625 L 7.96875 -17.9375 C 8.125 -18.269531 8.320312 -18.488281 8.5625 -18.59375 C 8.800781 -18.695312 9.109375 -18.75 9.484375 -18.75 Z M 9.484375 -13.859375 L 6.234375 -7.390625 L 12.71875 -7.390625 Z M 9.484375 -13.859375 "/></g></g><g style="fill:#000000;fill-opacity:1;"><g transform="translate(344.765692, 379.721543)"><path style="stroke:none" d="M 15.015625 -18.46875 C 15.578125 -18.46875 16 -18.3125 16.28125 -18 C 16.570312 -17.6875 16.71875 -17.335938 16.71875 -16.953125 C 16.71875 -16.585938 16.570312 -16.25 16.28125 -15.9375 C 16 -15.632812 15.578125 -15.484375 15.015625 -15.484375 L 9.625 -15.484375 L 9.65625 -1.53125 C 9.65625 -1.007812 9.460938 -0.625 9.078125 -0.375 C 8.703125 -0.125 8.320312 0 7.9375 0 C 7.53125 0 7.148438 -0.125 6.796875 -0.375 C 6.441406 -0.625 6.265625 -1.007812 6.265625 -1.53125 L 6.265625 -15.484375 L 0.90625 -15.484375 C 0.34375 -15.484375 -0.0664062 -15.632812 -0.328125 -15.9375 C -0.585938 -16.25 -0.71875 -16.585938 -0.71875 -16.953125 C -0.71875 -17.335938 -0.585938 -17.6875 -0.328125 -18 C -0.0664062 -18.3125 0.34375 -18.46875 0.90625 -18.46875 Z M 15.015625 -18.46875 "/></g></g><g style="fill:#000000;fill-opacity:1;"><g transform="translate(362.616425, 379.721543)"><path style="stroke:none" d="M 15.09375 -2.890625 C 15.601562 -2.890625 15.992188 -2.726562 16.265625 -2.40625 C 16.546875 -2.09375 16.6875 -1.753906 16.6875 -1.390625 C 16.6875 -1.046875 16.554688 -0.726562 16.296875 -0.4375 C 16.035156 -0.144531 15.632812 0 15.09375 0 L 3.59375 0 C 3.007812 0 2.546875 -0.164062 2.203125 -0.5 C 1.859375 -0.84375 1.6875 -1.253906 1.6875 -1.734375 L 1.6875 -16.75 C 1.6875 -17.21875 1.859375 -17.617188 2.203125 -17.953125 C 2.546875 -18.296875 3.007812 -18.46875 3.59375 -18.46875 L 15.09375 -18.46875 C 15.625 -18.46875 16.015625 -18.328125 16.265625 -18.046875 C 16.515625 -17.765625 16.640625 -17.441406 16.640625 -17.078125 C 16.640625 -16.722656 16.507812 -16.390625 16.25 -16.078125 C 15.988281 -15.773438 15.601562 -15.625 15.09375 -15.625 L 4.984375 -15.625 L 4.984375 -10.546875 L 14.578125 -10.546875 C 15.078125 -10.546875 15.453125 -10.394531 15.703125 -10.09375 C 15.960938 -9.800781 16.09375 -9.46875 16.09375 -9.09375 C 16.09375 -8.75 15.960938 -8.429688 15.703125 -8.140625 C 15.453125 -7.847656 15.078125 -7.703125 14.578125 -7.703125 L 4.984375 -7.703125 L 4.984375 -2.890625 Z M 15.09375 -2.890625 "/></g></g><path style="fill:none;stroke-width:18;stroke-linecap:butt;stroke-linejoin:miter;stroke:#a2a2a3;stroke-opacity:1;stroke-miterlimit:4;" d="M 0.000117765 9.001391 L 49.257222 9.001391 " transform="matrix(0.74553,0.000000000000002581,-0.000000000000002581,0.74553,424.890537,365.109504)"/><path style="fill:none;stroke-width:18;stroke-linecap:butt;stroke-linejoin:miter;stroke:#a2a2a3;stroke-opacity:1;stroke-miterlimit:4;" d="M -0.00139709 9.001391 L 49.255707 9.001391 " transform="matrix(0.74553,0,0,0.74553,100.20026,365.109504)"/></g></svg>